<svg xmlns="http://www.w3.org/2000/svg" xmlns:xlink="http://www.w3.org/1999/xlink" width="332.432" height="100" viewBox="0 0 332.432 100"><defs><clipPath id="a"><rect width="332.432" height="100" transform="translate(50 30)" fill="none" stroke="#000" stroke-width="1"/></clipPath></defs><g transform="translate(-50 -30)" clip-path="url(#a)"><g transform="translate(49.085 59.429)"><path d="M72.823,34.816H69.41v5.3H68.218v-5.3H64.805V33.9h8.017v.915Z" fill="#2568a9"/><path d="M82.283,37.008a2.826,2.826,0,0,1-1.443,2.469,5.555,5.555,0,0,1-3.135.832,5.714,5.714,0,0,1-3.163-.832A2.826,2.826,0,0,1,73.1,37.008a2.921,2.921,0,0,1,1.47-2.469,6.32,6.32,0,0,1,6.27,0A2.918,2.918,0,0,1,82.283,37.008Zm-1.248,0a2.1,2.1,0,0,0-1.054-1.775,4.136,4.136,0,0,0-2.275-.583,4.011,4.011,0,0,0-2.414.666,2.006,2.006,0,0,0-.028,3.385,4.042,4.042,0,0,0,2.441.638,4.1,4.1,0,0,0,2.441-.666A1.961,1.961,0,0,0,81.034,37.008Z" fill="#2568a9"/><path d="M100.01,40.115H98.817V35.038h-.028l-3.717,4.05-3.662-4.05h-.028v5.077H90.189V33.9h1.47l3.412,3.745,3.44-3.745h1.47v6.214Z" fill="#2568a9"/><path d="M110.3,40.115H109l-.832-1.387h-4.8l-.832,1.387h-1.3L105,33.9h1.5Zm-2.691-2.3-1.831-3.024-1.831,3.024Z" fill="#2568a9"/><path d="M119.845,40.115H118.32l-3.412-3.274-2.164,1.387v1.886h-1.193V33.9h1.193v3.218l4.994-3.218h1.72L115.8,36.259Z" fill="#2568a9"/><path d="M128.529,40.115h-7.49V33.9h7.213v.915h-6.02v1.609h4.189v.915h-4.189v1.831h6.3Z" fill="#2568a9"/><path d="M144.2,40.115h-1.3l-.832-1.387h-4.8l-.832,1.387h-1.248L138.96,33.9h1.5Zm-2.691-2.3-1.831-3.024-1.831,3.024Z" fill="#2568a9"/><path d="M157.131,33.9a2.68,2.68,0,0,1,1.748.527,1.712,1.712,0,0,1,.638,1.415,1.664,1.664,0,0,1-.666,1.415,3.183,3.183,0,0,1-1.942.5h-4.245v2.358h-1.193V33.9Zm-.222,2.913c.915,0,1.359-.333,1.359-.971,0-.694-.472-1.026-1.443-1.026h-4.161v2Z" fill="#2568a9"/><path d="M168.338,40.115h-7.463V33.9h7.185v.915h-6.02v1.609h4.189v.915h-4.189v1.831h6.3Z" fill="#2568a9"/><path d="M178.215,40.115h-1.387l-1.942-2.358h-3.606v2.358h-1.193V33.9h5.632a2.71,2.71,0,0,1,1.775.527,1.73,1.73,0,0,1,.638,1.443,1.635,1.635,0,0,1-.527,1.276,2.249,2.249,0,0,1-1.332.555Zm-2.635-3.3c.915,0,1.359-.333,1.359-.971,0-.694-.5-1.026-1.47-1.026h-4.161v2Z" fill="#2568a9"/><path d="M186.2,35.371a7.855,7.855,0,0,0-3.246-.694,5.114,5.114,0,0,0-1.665.222c-.388.139-.583.361-.583.61,0,.277.194.472.61.61a6.648,6.648,0,0,0,1.443.194c1,.055,1.637.111,1.942.139a4.746,4.746,0,0,1,1.97.583,1.349,1.349,0,0,1,.638,1.193,1.664,1.664,0,0,1-1,1.526,6.224,6.224,0,0,1-2.885.527,7.377,7.377,0,0,1-4.245-1.054l.638-.749a7.708,7.708,0,0,0,3.606.888,5.165,5.165,0,0,0,1.942-.305c.444-.194.666-.472.666-.8,0-.388-.277-.666-.86-.777-.305-.055-1.11-.139-2.441-.222a7.247,7.247,0,0,1-2.469-.416,1.247,1.247,0,0,1-.832-1.221,1.524,1.524,0,0,1,.943-1.387,5.836,5.836,0,0,1,2.663-.5,7.486,7.486,0,0,1,3.856.915Z" fill="#2568a9"/><path d="M197.8,37.008a2.826,2.826,0,0,1-1.443,2.469,5.555,5.555,0,0,1-3.135.832,5.714,5.714,0,0,1-3.163-.832,2.826,2.826,0,0,1-1.443-2.469,2.921,2.921,0,0,1,1.47-2.469,6.32,6.32,0,0,1,6.27,0A2.858,2.858,0,0,1,197.8,37.008Zm-1.221,0a2.1,2.1,0,0,0-1.054-1.775,4.136,4.136,0,0,0-2.275-.583,4.011,4.011,0,0,0-2.414.666,2.006,2.006,0,0,0-.028,3.385,4.042,4.042,0,0,0,2.441.638,4.1,4.1,0,0,0,2.441-.666A1.961,1.961,0,0,0,196.58,37.008Z" fill="#2568a9"/><path d="M207.926,40.115h-1.47l-5.437-5.1v5.1h-1.193V33.9h1.47l5.437,5.1V33.9h1.193v6.214Z" fill="#2568a9"/><path d="M226.375,34.816h-6.02v1.609h4.189v.915h-4.189v2.774h-1.193V33.9h7.185l.028.915Z" fill="#2568a9"/><path d="M235.89,37.008a2.826,2.826,0,0,1-1.443,2.469,5.555,5.555,0,0,1-3.135.832,5.714,5.714,0,0,1-3.163-.832,2.826,2.826,0,0,1-1.443-2.469,2.921,2.921,0,0,1,1.47-2.469,6.32,6.32,0,0,1,6.27,0A2.858,2.858,0,0,1,235.89,37.008Zm-1.221,0a2.1,2.1,0,0,0-1.054-1.775,4.136,4.136,0,0,0-2.275-.583,4.011,4.011,0,0,0-2.414.666A2.006,2.006,0,0,0,228.9,38.7a4.042,4.042,0,0,0,2.441.638,4.1,4.1,0,0,0,2.441-.666A1.961,1.961,0,0,0,234.67,37.008Z" fill="#2568a9"/><path d="M244.019,35.371a7.855,7.855,0,0,0-3.246-.694,5.114,5.114,0,0,0-1.665.222c-.388.139-.583.361-.583.61,0,.277.194.472.61.61a6.648,6.648,0,0,0,1.443.194c1,.055,1.637.111,1.942.139a4.746,4.746,0,0,1,1.97.583,1.349,1.349,0,0,1,.638,1.193,1.664,1.664,0,0,1-1,1.526,6.224,6.224,0,0,1-2.885.527A7.377,7.377,0,0,1,237,39.227l.638-.749a7.708,7.708,0,0,0,3.606.888,5.165,5.165,0,0,0,1.942-.305c.444-.194.666-.472.666-.8,0-.388-.277-.666-.86-.777-.305-.055-1.11-.139-2.441-.222a7.247,7.247,0,0,1-2.469-.416,1.247,1.247,0,0,1-.832-1.221,1.524,1.524,0,0,1,.943-1.387,5.836,5.836,0,0,1,2.663-.5,7.486,7.486,0,0,1,3.856.915Z" fill="#2568a9"/><path d="M253.4,34.816h-3.412v5.3H248.79v-5.3h-3.412V33.9H253.4v.915Z" fill="#2568a9"/><path d="M262.134,40.115h-7.463V33.9h7.185v.915h-6.02v1.609h4.189v.915h-4.189v1.831h6.3v.943Z" fill="#2568a9"/><path d="M272.01,40.115h-1.387l-1.942-2.358h-3.606v2.358H263.91V33.9h5.632a2.71,2.71,0,0,1,1.775.527,1.811,1.811,0,0,1,.638,1.443,1.635,1.635,0,0,1-.527,1.276,2.249,2.249,0,0,1-1.332.555Zm-2.663-3.3c.915,0,1.359-.333,1.359-.971,0-.694-.5-1.026-1.47-1.026h-4.161v2Z" fill="#2568a9"/><path d="M287.851,40.115h-1.193V37.341h-5.715v2.774H279.75V33.9h1.193v2.525h5.715V33.9h1.193Z" fill="#2568a9"/><path d="M298.254,38.118a1.822,1.822,0,0,1-1.082,1.581,6,6,0,0,1-2.941.638,6.118,6.118,0,0,1-2.968-.638,1.822,1.822,0,0,1-1.082-1.581V33.9h1.193v3.967a1.2,1.2,0,0,0,.721,1.11,6.068,6.068,0,0,0,4.272,0,1.226,1.226,0,0,0,.721-1.11V33.9h1.193l-.028,4.217Z" fill="#2568a9"/><path d="M310.405,40.115h-1.193V35.038h-.028l-3.717,4.05-3.69-4.05h-.028v5.077h-1.193V33.9h1.47l3.412,3.745,3.44-3.745h1.47v6.214Z" fill="#2568a9"/><path d="M320.7,40.115h-1.3l-.832-1.387h-4.8l-.832,1.387h-1.3L315.4,33.9h1.5Zm-2.691-2.3-1.831-3.024-1.831,3.024Z" fill="#2568a9"/><path d="M330.074,40.115H328.6l-5.437-5.1v5.1h-1.193V33.9h1.47l5.437,5.1V33.9h1.193Z" fill="#2568a9"/><path d="M95.377,27.27a3.215,3.215,0,0,1-1.8-.555L69.521,9.294V24.441a2.616,2.616,0,1,1-5.215,0V3.69a2.7,2.7,0,0,1,1.443-2.525,2.818,2.818,0,0,1,2.941.25L92.575,18.837V3.69a2.886,2.886,0,0,1,5.77,0V24.441a2.851,2.851,0,0,1-1.609,2.525A3.026,3.026,0,0,1,95.377,27.27Z" fill="#2568a9"/><path d="M170.142,27.27a3.127,3.127,0,0,1-1.886-.61L140.291,5.909a2.713,2.713,0,0,1-.5-3.967,3.2,3.2,0,0,1,4.272-.444l27.964,20.751a2.713,2.713,0,0,1,.5,3.967A3.178,3.178,0,0,1,170.142,27.27Z" fill="#2568a9"/><path d="M142.178,27.27a3.109,3.109,0,0,1-2.386-1.082,2.672,2.672,0,0,1,.5-3.967L168.255,1.47a3.2,3.2,0,0,1,4.272.444,2.672,2.672,0,0,1-.5,3.967L144.064,26.66A3.127,3.127,0,0,1,142.178,27.27Z" fill="#2568a9"/><path d="M208.121,6.6H179.435a2.764,2.764,0,0,1-2.663-2.857A2.782,2.782,0,0,1,179.435.888h28.685a2.764,2.764,0,0,1,2.663,2.857A2.782,2.782,0,0,1,208.121,6.6Z" fill="#2568a9"/><path d="M193.778,27.3a2.762,2.762,0,0,1-2.857-2.83V3.717a2.858,2.858,0,0,1,5.715,0V24.468A2.747,2.747,0,0,1,193.778,27.3Z" fill="#2568a9"/><path d="M292.956,27.326a3.194,3.194,0,0,1-1.775-.555L267.488,9.349V24.5a2.83,2.83,0,0,1-5.659,0V3.745a2.97,2.97,0,0,1,4.688-2.275l23.664,17.422V3.745a2.83,2.83,0,1,1,5.659,0V24.5a2.876,2.876,0,0,1-1.581,2.525A2.656,2.656,0,0,1,292.956,27.326Z" fill="#2568a9"/><path d="M330.6,6.714H302.027a2.791,2.791,0,0,1-2.719-2.857A2.791,2.791,0,0,1,302.027,1H330.6a2.791,2.791,0,0,1,2.719,2.857A2.791,2.791,0,0,1,330.6,6.714Z" fill="#2568a9"/><path d="M330.574,27.159H302.332a2.981,2.981,0,0,1-3-2.774V14.121a3.008,3.008,0,0,1,3-2.83H327.8a2.83,2.83,0,0,1,0,5.659H304.885v4.605h25.689a2.812,2.812,0,0,1,2.774,2.83A2.782,2.782,0,0,1,330.574,27.159Z" fill="#2568a9"/><path d="M250.566,27.326H232.228c-4.3,0-7.962-3.412-7.962-7.435V8.406c0-4.023,3.662-7.463,7.962-7.463h18.337a7.629,7.629,0,0,1,7.712,7.463V19.891A7.588,7.588,0,0,1,250.566,27.326ZM232.228,6.186c-1.609,0-2.746.888-2.746,2.192V19.863c0,1.3,1.11,2.164,2.746,2.164h18.337c1.609,0,3-.86,3-2.164V8.378c0-1.3-1.359-2.192-3-2.192H232.228Z" fill="#2568a9"/><path d="M133.051,6.492l-28.6.139A2.784,2.784,0,0,1,101.73,3.8,2.786,2.786,0,0,1,104.421.943L133.023.8a2.784,2.784,0,0,1,2.719,2.83A2.785,2.785,0,0,1,133.051,6.492Z" fill="#2568a9"/><path d="M133.078,27.187l-28.214.111a3.01,3.01,0,0,1-3.024-2.8l-.028-10.376a3.057,3.057,0,0,1,3-2.885l25.439-.111a2.845,2.845,0,0,1,.028,5.687l-22.915.111.028,4.661,25.661-.111a2.859,2.859,0,0,1,.028,5.715Z" fill="#2568a9"/><path d="M52.432,4.3V26.466H17.117V4.3H52.432M55.29,1.443H14.259V29.323H55.29V1.443Z" fill="#00406d"/><path d="M52.432,4.3V26.466H17.117V4.3H52.432" fill="#e4e14c"/><path d="M39.061,14.315V36.481H3.773V14.315H39.061m2.857-2.83h-41V39.366h41Z" fill="#00406d"/><path d="M39.061,14.315V36.508H3.773V14.315H39.061" fill="#2568a9"/></g></g></svg>