<svg xmlns="http://www.w3.org/2000/svg" xmlns:xlink="http://www.w3.org/1999/xlink" width="251" height="88" viewBox="0 0 251 88"><defs><clipPath id="a"><rect width="251" height="88" transform="translate(49 908)" fill="#fff" stroke="#707070" stroke-width="1"/></clipPath></defs><g transform="translate(-49 -908)" clip-path="url(#a)"><g transform="translate(80.147 908)"><path d="M20.326,132.3l-2.594,13.249h-2.9l-.792-4.831c-.2-1.227-.373-2.594-.528-4.178h-.031c-.217,1.584-.4,2.92-.652,4.194l-.9,4.815H9.08L6.642,132.3H9.515l.683,5.172c.2,1.538.373,3.184.544,4.644h.031c.186-1.522.466-3.075.715-4.675l.854-5.141h2.609l.792,5.25c.233,1.522.419,2.951.575,4.551h.047c.155-1.6.342-3.091.559-4.644l.7-5.141h2.7Z" transform="translate(-6.626 -71.183)" fill="#050000"/><path d="M37.428,146.462a7.214,7.214,0,0,1-2.858.528c-2.718,0-4.256-1.817-4.256-4.831,0-2.765,1.445-5.172,4.023-5.172,2.066,0,3.51,1.538,3.51,4.815a7.661,7.661,0,0,1-.078,1.274H32.892c.062,1.149.979,1.678,2.1,1.678a6.208,6.208,0,0,0,2.081-.373Zm-2.035-5.468c0-.854-.249-1.942-1.18-1.942-.916,0-1.274,1.134-1.32,1.942Z" transform="translate(-13.026 -72.449)" fill="#050000"/><path d="M50.6,136.731a2.54,2.54,0,0,1,2.206-1.212c1.926,0,3.075,2.035,3.075,4.8,0,3.464-1.662,5.235-3.479,5.235a2.279,2.279,0,0,1-2.159-1.413h-.031l-.14,1.212H47.791c.031-.761.062-1.879.062-2.951V131.559h2.7v5.172Zm-.047,4.784c0,1.087.621,1.631,1.2,1.631.9,0,1.413-.947,1.413-2.656,0-1.507-.466-2.547-1.413-2.547-.606,0-1.2.606-1.2,1.646Z" transform="translate(-17.751 -70.981)" fill="#050000"/><path d="M72.506,135.135a4.331,4.331,0,0,0-2.1-.544c-1.041,0-1.553.559-1.553,1.212,0,.73.5,1.1,1.942,1.833a4.15,4.15,0,0,1,2.672,3.9c0,2.423-1.646,4.132-4.52,4.132a6.323,6.323,0,0,1-2.936-.683l.466-2.532a5.643,5.643,0,0,0,2.578.683c1.134,0,1.693-.544,1.693-1.336,0-.808-.544-1.258-1.771-1.864-1.879-.963-2.842-2.268-2.842-3.837,0-2.252,1.538-4.007,4.287-4.007a5.39,5.39,0,0,1,2.578.59Z" transform="translate(-22.677 -71.125)" fill="#050000"/><path d="M83.583,134.505l2.672-.839v2.609h1.8v2.175h-1.8v3.635c0,1.134.326,1.538.963,1.538a1.859,1.859,0,0,0,.7-.093l.016,2.33a5.282,5.282,0,0,1-1.662.217c-2.656,0-2.7-2.532-2.7-3.635v-4.007H82.512V136.26h1.056v-1.755Z" transform="translate(-27.138 -71.551)" fill="#050000"/><path d="M104.722,143.77c0,1.18.047,2.252.078,3.107h-2.33l-.124-1.2H102.3a2.771,2.771,0,0,1-2.408,1.382c-1.755,0-2.734-1.32-2.734-4.1v-5.747h2.7v5.312c0,1.3.326,2.05,1.072,2.05.559,0,1.087-.482,1.087-1.46V137.2h2.7Z" transform="translate(-31.097 -72.506)" fill="#050000"/><path d="M122.8,142.389c0,1.056.031,2.175.062,2.951H120.5l-.124-1.258h-.047a2.563,2.563,0,0,1-2.268,1.445c-1.988,0-3.277-2.128-3.277-4.97,0-3.277,1.6-5.064,3.4-5.064a2.021,2.021,0,0,1,1.879.994h.047v-4.97h2.7v10.873Zm-2.7-2.749c0-1.336-.7-1.724-1.165-1.724-.979,0-1.429,1.2-1.429,2.656,0,1.662.59,2.532,1.413,2.532.513,0,1.18-.357,1.18-1.678V139.64Z" transform="translate(-35.862 -70.97)" fill="#050000"/><path d="M140.658,137.243l-1.895,6.865c-.885,2.967-1.615,4.6-2.547,5.654a4.6,4.6,0,0,1-2.408,1.429l-.668-2.578a3.184,3.184,0,0,0,2.19-2.081,1.238,1.238,0,0,0-.109-.435l-2.811-8.854h2.967l1.01,4.737c.124.544.249,1.165.326,1.678h.047c.093-.513.186-1.134.28-1.662l.823-4.753Z" transform="translate(-40.628 -72.518)" fill="#050000"/><path d="M156.508,135.135a4.331,4.331,0,0,0-2.1-.544c-1.041,0-1.553.559-1.553,1.212,0,.73.5,1.1,1.942,1.833a4.15,4.15,0,0,1,2.672,3.9c0,2.423-1.646,4.132-4.52,4.132a6.323,6.323,0,0,1-2.936-.683l.466-2.532a5.643,5.643,0,0,0,2.578.683c1.134,0,1.693-.544,1.693-1.336,0-.808-.544-1.258-1.771-1.864-1.879-.963-2.842-2.268-2.842-3.837,0-2.252,1.538-4.007,4.287-4.007a5.39,5.39,0,0,1,2.578.59Z" transform="translate(-45.387 -71.125)" fill="#050000"/><path d="M173.856,144.53a13.916,13.916,0,0,0,.14,2.283h-2.423l-.155-.932h-.047A2.573,2.573,0,0,1,169.15,147a2.717,2.717,0,0,1-2.594-2.967c0-2.547,2.05-3.65,4.6-3.666,0-.73-.3-1.274-1.382-1.274a3.879,3.879,0,0,0-2.128.652l-.5-1.957a6.215,6.215,0,0,1,3.169-.823c2.858,0,3.557,2.019,3.557,4.163v3.4Zm-2.625-2.268c-1.118,0-2.081.357-2.081,1.476,0,.792.435,1.134.9,1.134a1.226,1.226,0,0,0,1.165-1.351v-1.258Z" transform="translate(-49.859 -72.443)" fill="#050000"/><path d="M186.768,138.379a2.689,2.689,0,0,1,2.392-1.413c1.911,0,3.215,2.05,3.215,4.939,0,3.526-1.771,5.095-3.464,5.095a2.125,2.125,0,0,1-1.848-.979h-.047v4.629H184.33v-10.3c0-1.2-.031-2.268-.062-3.184h2.33l.14,1.212Zm.264,4.567c0,.979.5,1.693,1.18,1.693.947,0,1.429-1.118,1.429-2.625,0-1.615-.5-2.609-1.4-2.609-.637,0-1.212.637-1.212,1.662Z" transform="translate(-54.647 -72.443)" fill="#050000"/><path d="M205.049,138.379a2.689,2.689,0,0,1,2.392-1.413c1.911,0,3.215,2.05,3.215,4.939,0,3.526-1.771,5.095-3.464,5.095a2.125,2.125,0,0,1-1.848-.979H205.3v4.629h-2.7v-10.3c0-1.2-.031-2.268-.062-3.184h2.33l.14,1.212Zm.249,4.567c0,.979.5,1.693,1.18,1.693.947,0,1.429-1.118,1.429-2.625,0-1.615-.5-2.609-1.4-2.609-.637,0-1.212.637-1.212,1.662Z" transform="translate(-59.585 -72.443)" fill="#050000"/><path d="M228.379,141.942c0,3.759-2.159,5.079-4.054,5.079-2.392,0-4.038-1.848-4.038-4.955,0-3.246,1.755-5.079,4.132-5.079C226.888,136.987,228.379,139.037,228.379,141.942Zm-4.023-2.765c-1.01,0-1.336,1.476-1.336,2.811,0,1.615.419,2.827,1.336,2.827.87,0,1.289-1.289,1.289-2.827C225.645,140.56,225.288,139.177,224.356,139.177Z" transform="translate(-64.385 -72.449)" fill="#050000"/><path d="M243.726,139.911a2.71,2.71,0,0,0-.668-.062,1.551,1.551,0,0,0-1.569,1.212,2.975,2.975,0,0,0-.109.9v4.831h-2.7v-6.539c0-1.274-.031-2.252-.062-3.122h2.314l.109,1.615h.062a2.337,2.337,0,0,1,2.05-1.8,2.846,2.846,0,0,1,.575.047v2.92Z" transform="translate(-69.34 -72.437)" fill="#050000"/><path d="M259.949,141.942c0,3.759-2.159,5.079-4.054,5.079-2.392,0-4.038-1.848-4.038-4.955,0-3.246,1.755-5.079,4.132-5.079C258.458,136.987,259.949,139.037,259.949,141.942Zm-4.023-2.765c-1.01,0-1.336,1.476-1.336,2.811,0,1.615.419,2.827,1.336,2.827.87,0,1.289-1.289,1.289-2.827C257.215,140.56,256.842,139.177,255.926,139.177Z" transform="translate(-72.92 -72.449)" fill="#050000"/><g transform="translate(0 83.348)"><path d="M10.721,163.016l-.963,3.635H9.37l-.45-1.942c-.109-.482-.186-.839-.233-1.212H8.671a9.839,9.839,0,0,1-.28,1.2l-.513,1.957H7.49l-.87-3.635h.4l.435,1.895c.109.466.2.9.264,1.258h.016c.047-.373.171-.792.28-1.274L8.5,163h.388l.435,1.879c.093.435.2.87.249,1.274h.016c.062-.419.171-.823.28-1.274L10.348,163h.373Z" transform="translate(-6.621 -162.83)" fill="#231815"/><path d="M15.475,166.9a1.7,1.7,0,0,1-.792.155,1.172,1.172,0,0,1-1.165-1.32c0-.823.435-1.413,1.118-1.413.777,0,.963.73.963,1.2a.889.889,0,0,1-.016.217H13.906c0,.73.4.994.854.994a1.357,1.357,0,0,0,.652-.14Zm-.233-1.445c0-.357-.14-.808-.637-.808-.466,0-.668.45-.7.808Z" transform="translate(-8.485 -163.187)" fill="#231815"/><path d="M22.1,166.387a3.961,3.961,0,0,0,.031.621h-.342l-.031-.342h-.016a.868.868,0,0,1-.746.388.7.7,0,0,1-.73-.746c0-.621.528-.963,1.46-.963,0-.217,0-.714-.575-.714a1.035,1.035,0,0,0-.606.186l-.093-.28a1.369,1.369,0,0,1,.761-.217c.715,0,.885.528.885,1.041v1.025Zm-.373-.73c-.482,0-1.072.078-1.072.621a.422.422,0,0,0,.435.482.624.624,0,0,0,.637-.606Z" transform="translate(-10.31 -163.187)" fill="#231815"/><path d="M25.88,164.746c-.047,0-.078-.016-.14-.016-.419,0-.621.419-.621.87v1.413h-.388v-1.833c0-.28,0-.528-.016-.777h.342l.016.5h.016a.754.754,0,0,1,.683-.559c.047,0,.078.016.109.016v.388Z" transform="translate(-11.512 -163.193)" fill="#231815"/><path d="M29.567,166.9a1.7,1.7,0,0,1-.792.155,1.172,1.172,0,0,1-1.165-1.32c0-.823.435-1.413,1.118-1.413.777,0,.963.73.963,1.2a.889.889,0,0,1-.016.217H27.968c0,.73.4.994.854.994a1.357,1.357,0,0,0,.652-.14Zm-.249-1.445c0-.357-.14-.808-.637-.808-.466,0-.668.45-.7.808Z" transform="translate(-12.295 -163.187)" fill="#231815"/><path d="M36.186,166.387a3.961,3.961,0,0,0,.031.621h-.357l-.031-.342h-.016a.868.868,0,0,1-.746.388.7.7,0,0,1-.73-.746c0-.621.528-.963,1.46-.963,0-.217,0-.714-.575-.714a1.035,1.035,0,0,0-.606.186l-.093-.28a1.369,1.369,0,0,1,.761-.217c.715,0,.885.528.885,1.041v1.025Zm-.373-.73c-.482,0-1.072.078-1.072.621a.422.422,0,0,0,.435.482.624.624,0,0,0,.637-.606v-.5Z" transform="translate(-14.114 -163.187)" fill="#231815"/><path d="M42.357,164.808a.877.877,0,0,0-.482-.155.376.376,0,0,0-.419.388c0,.217.14.326.466.466.4.171.637.388.637.777a.783.783,0,0,1-.885.777,1.4,1.4,0,0,1-.652-.171l.109-.311a1.248,1.248,0,0,0,.559.171c.342,0,.5-.186.5-.419,0-.249-.14-.373-.466-.513-.419-.171-.637-.419-.637-.73a.757.757,0,0,1,.823-.746,1.2,1.2,0,0,1,.575.155Z" transform="translate(-15.921 -163.193)" fill="#231815"/><path d="M46.477,166.92a1.46,1.46,0,0,1-.683.155,1.2,1.2,0,0,1-1.2-1.336,1.287,1.287,0,0,1,1.289-1.4,1.43,1.43,0,0,1,.606.14l-.093.326a.965.965,0,0,0-.513-.14A.927.927,0,0,0,45,165.709c0,.637.357,1.025.87,1.025a1.4,1.4,0,0,0,.544-.124Z" transform="translate(-16.888 -163.193)" fill="#231815"/><path d="M50.854,166.588h-.388V165.05c0-.419-.14-.792-.575-.792a.7.7,0,0,0-.668.73v1.6h-.388v-3.821h.388v1.615h.016a.935.935,0,0,1,.777-.466c.311,0,.839.2.839,1.087Z" transform="translate(-18.033 -162.767)" fill="#231815"/><path d="M55.619,165.693a1.22,1.22,0,0,1-1.18,1.382c-.637,0-1.134-.5-1.134-1.351a1.222,1.222,0,0,1,1.18-1.382C55.169,164.342,55.619,164.886,55.619,165.693Zm-1.149-1.041c-.544,0-.761.559-.761,1.056,0,.575.311,1.041.761,1.041s.777-.466.777-1.056C55.231,165.243,55.013,164.653,54.47,164.653Z" transform="translate(-19.242 -163.193)" fill="#231815"/><path d="M60.281,165.693a1.22,1.22,0,0,1-1.18,1.382c-.637,0-1.134-.5-1.134-1.351a1.222,1.222,0,0,1,1.18-1.382A1.2,1.2,0,0,1,60.281,165.693Zm-1.165-1.041c-.544,0-.761.559-.761,1.056,0,.575.311,1.041.761,1.041s.777-.466.777-1.056C59.893,165.243,59.675,164.653,59.116,164.653Z" transform="translate(-20.502 -163.193)" fill="#231815"/><path d="M63.251,166.588h-.388v-3.821h.388Z" transform="translate(-21.826 -162.767)" fill="#231815"/><path d="M68.147,164.86a.905.905,0,0,1,.854-.5c.59,0,1.025.528,1.025,1.336,0,.963-.544,1.4-1.087,1.4a.861.861,0,0,1-.761-.419h-.016v1.429h-.388v-2.842c0-.342-.016-.606-.016-.839H68.1l.047.435Zm.016,1.118a.717.717,0,0,0,.7.777c.5,0,.761-.435.761-1.056,0-.544-.264-1.025-.746-1.025a.784.784,0,0,0-.715.808Z" transform="translate(-23.149 -163.198)" fill="#231815"/><path d="M73.735,164.746c-.047,0-.078-.016-.14-.016-.419,0-.621.419-.621.87v1.413h-.388v-1.833c0-.28,0-.528-.016-.777h.342l.016.5h.016a.754.754,0,0,1,.683-.559c.047,0,.078.016.109.016Z" transform="translate(-24.45 -163.193)" fill="#231815"/><path d="M77.78,165.693a1.22,1.22,0,0,1-1.18,1.382c-.637,0-1.134-.5-1.134-1.351a1.222,1.222,0,0,1,1.18-1.382C77.329,164.342,77.78,164.886,77.78,165.693Zm-1.149-1.041c-.544,0-.761.559-.761,1.056,0,.575.311,1.041.761,1.041s.777-.466.777-1.056C77.391,165.243,77.174,164.653,76.63,164.653Z" transform="translate(-25.233 -163.193)" fill="#231815"/><path d="M82.194,164.427l-.947,2.609h-.357l-.932-2.609h.4l.5,1.522c.078.233.14.45.2.668h.016c.062-.217.124-.435.2-.668l.5-1.507h.419Z" transform="translate(-26.447 -163.216)" fill="#231815"/><path d="M84.719,163.608a.263.263,0,0,1-.249-.28.249.249,0,1,1,.5,0A.254.254,0,0,1,84.719,163.608Zm.186,3.06h-.388v-2.609h.388Z" transform="translate(-27.667 -162.847)" fill="#231815"/><path d="M89.017,165.951c0,.217.016.466.016.652h-.342l-.016-.45H88.66a.871.871,0,0,1-.823.5c-.575,0-1.025-.528-1.025-1.32,0-.885.5-1.4,1.087-1.4a.781.781,0,0,1,.73.4h.016v-1.569h.388v3.184Zm-.388-.932a.705.705,0,0,0-.683-.777c-.466,0-.761.466-.761,1.056,0,.544.249,1.025.746,1.025a.727.727,0,0,0,.683-.792v-.513Z" transform="translate(-28.3 -162.767)" fill="#231815"/><path d="M91.978,163.608a.263.263,0,0,1-.249-.28.249.249,0,1,1,.5,0A.246.246,0,0,1,91.978,163.608Zm.2,3.06h-.388v-2.609h.388Z" transform="translate(-29.63 -162.847)" fill="#231815"/><path d="M96.319,167.019H95.93v-1.538c0-.419-.14-.792-.59-.792a.691.691,0,0,0-.652.746v1.6H94.3v-1.942c0-.264-.016-.466-.016-.668h.342l.016.419h.016a.906.906,0,0,1,.808-.482c.311,0,.854.2.854,1.087v1.569Z" transform="translate(-30.32 -163.198)" fill="#231815"/><path d="M101,164.4c-.016.186-.016.4-.016.714v1.522c0,.45-.016,1.491-1.2,1.491a1.575,1.575,0,0,1-.792-.2l.109-.311a1.382,1.382,0,0,0,.7.2c.466,0,.792-.249.792-.947v-.311h-.016a.834.834,0,0,1-.777.45c-.606,0-1.025-.544-1.025-1.289,0-.9.544-1.382,1.087-1.382a.791.791,0,0,1,.761.45h.016l.016-.388Zm-.4,1.01a.693.693,0,0,0-.668-.746c-.435,0-.746.4-.746,1.041,0,.559.264.994.746.994a.7.7,0,0,0,.668-.761Z" transform="translate(-31.535 -163.193)" fill="#231815"/><path d="M106.529,164.86a.905.905,0,0,1,.854-.5c.59,0,1.025.528,1.025,1.336,0,.963-.544,1.4-1.087,1.4a.861.861,0,0,1-.761-.419h-.016v1.429h-.388v-2.842c0-.342-.016-.606-.016-.839h.342l.047.435Zm.031,1.118a.717.717,0,0,0,.7.777c.5,0,.761-.435.761-1.056,0-.544-.264-1.025-.746-1.025a.784.784,0,0,0-.715.808Z" transform="translate(-33.526 -163.198)" fill="#231815"/><path d="M112.117,164.746c-.047,0-.078-.016-.14-.016-.419,0-.621.419-.621.87v1.413h-.388v-1.833c0-.28,0-.528-.016-.777h.342l.016.5h.016a.754.754,0,0,1,.683-.559c.047,0,.078.016.109.016Z" transform="translate(-34.826 -163.193)" fill="#231815"/><path d="M115.674,166.387a3.961,3.961,0,0,0,.031.621h-.357l-.031-.342H115.3a.868.868,0,0,1-.746.388.7.7,0,0,1-.73-.746c0-.621.528-.963,1.46-.963,0-.217,0-.714-.575-.714a1.036,1.036,0,0,0-.606.186l-.093-.28a1.369,1.369,0,0,1,.761-.217c.714,0,.885.528.885,1.041v1.025Zm-.373-.73c-.482,0-1.072.078-1.072.621a.422.422,0,0,0,.435.482.624.624,0,0,0,.637-.606v-.5Z" transform="translate(-35.603 -163.187)" fill="#231815"/><path d="M119.942,166.92a1.46,1.46,0,0,1-.683.155,1.2,1.2,0,0,1-1.2-1.336,1.287,1.287,0,0,1,1.289-1.4,1.43,1.43,0,0,1,.606.14l-.093.326a.965.965,0,0,0-.513-.14.927.927,0,0,0-.885,1.041c0,.637.357,1.025.87,1.025a1.4,1.4,0,0,0,.544-.124Z" transform="translate(-36.749 -163.193)" fill="#231815"/><path d="M122.3,163.737l.373-.14v.606h.652v.311h-.652v1.507c0,.326.093.513.342.513a1.231,1.231,0,0,0,.264-.031l.016.311a1.084,1.084,0,0,1-.373.062c-.606,0-.621-.575-.621-.854v-1.491h-.388v-.311h.388Z" transform="translate(-37.79 -162.991)" fill="#231815"/><path d="M125.655,163.608a.263.263,0,0,1-.249-.28.249.249,0,1,1,.5,0A.254.254,0,0,1,125.655,163.608Zm.186,3.06h-.388v-2.609h.388Z" transform="translate(-38.734 -162.847)" fill="#231815"/><path d="M129.606,166.92a1.46,1.46,0,0,1-.683.155,1.2,1.2,0,0,1-1.2-1.336,1.287,1.287,0,0,1,1.289-1.4,1.43,1.43,0,0,1,.606.14l-.093.326a.965.965,0,0,0-.513-.14.927.927,0,0,0-.885,1.041c0,.637.357,1.025.87,1.025a1.4,1.4,0,0,0,.544-.124Z" transform="translate(-39.362 -163.193)" fill="#231815"/><path d="M133.556,166.387a3.959,3.959,0,0,0,.031.621h-.357l-.031-.342h-.016a.868.868,0,0,1-.746.388.7.7,0,0,1-.73-.746c0-.621.528-.963,1.46-.963,0-.217,0-.714-.575-.714a1.035,1.035,0,0,0-.606.186l-.093-.28a1.369,1.369,0,0,1,.761-.217c.715,0,.885.528.885,1.041v1.025Zm-.373-.73c-.482,0-1.072.078-1.072.621a.422.422,0,0,0,.435.482.624.624,0,0,0,.637-.606v-.5Z" transform="translate(-40.438 -163.187)" fill="#231815"/><path d="M136.567,166.588h-.388v-3.821h.388Z" transform="translate(-41.646 -162.767)" fill="#231815"/><path d="M142.928,164.427l-.947,2.609h-.357l-.932-2.609h.4l.5,1.522c.078.233.14.45.2.668h.016c.062-.217.124-.435.2-.668l.5-1.507h.419Z" transform="translate(-42.866 -163.216)" fill="#231815"/><path d="M147.348,165.693a1.22,1.22,0,0,1-1.18,1.382c-.637,0-1.134-.5-1.134-1.351a1.222,1.222,0,0,1,1.18-1.382C146.9,164.342,147.348,164.886,147.348,165.693Zm-1.149-1.041c-.544,0-.761.559-.761,1.056,0,.575.311,1.041.761,1.041s.777-.466.777-1.056C146.96,165.243,146.743,164.653,146.2,164.653Z" transform="translate(-44.04 -163.193)" fill="#231815"/><path d="M151.575,166.92a1.46,1.46,0,0,1-.683.155,1.2,1.2,0,0,1-1.2-1.336,1.287,1.287,0,0,1,1.289-1.4,1.43,1.43,0,0,1,.606.14l-.093.326a.965.965,0,0,0-.513-.14.927.927,0,0,0-.885,1.041c0,.637.357,1.025.87,1.025a1.4,1.4,0,0,0,.544-.124Z" transform="translate(-45.301 -163.193)" fill="#231815"/><path d="M155.5,166.387a3.961,3.961,0,0,0,.031.621h-.357l-.031-.342h-.016a.868.868,0,0,1-.746.388.7.7,0,0,1-.73-.746c0-.621.528-.963,1.46-.963,0-.217,0-.714-.575-.714a1.036,1.036,0,0,0-.606.186l-.093-.28a1.369,1.369,0,0,1,.761-.217c.715,0,.885.528.885,1.041v1.025Zm-.373-.73c-.482,0-1.072.078-1.072.621a.422.422,0,0,0,.435.482.624.624,0,0,0,.637-.606Z" transform="translate(-46.371 -163.187)" fill="#231815"/><path d="M158.158,163.737l.373-.14v.606h.652v.311h-.652v1.507c0,.326.093.513.342.513a1.231,1.231,0,0,0,.264-.031l.031.311a1.083,1.083,0,0,1-.373.062c-.606,0-.621-.575-.621-.854v-1.491h-.388v-.311h.388v-.482Z" transform="translate(-47.488 -162.991)" fill="#231815"/><path d="M161.483,163.608a.263.263,0,0,1-.249-.28.249.249,0,1,1,.5,0A.238.238,0,0,1,161.483,163.608Zm.2,3.06H161.3v-2.609h.388Z" transform="translate(-48.42 -162.847)" fill="#231815"/><path d="M165.89,165.693a1.22,1.22,0,0,1-1.18,1.382c-.637,0-1.134-.5-1.134-1.351a1.222,1.222,0,0,1,1.18-1.382C165.44,164.342,165.89,164.886,165.89,165.693Zm-1.149-1.041c-.544,0-.761.559-.761,1.056,0,.575.311,1.041.761,1.041s.777-.466.777-1.056C165.5,165.243,165.284,164.653,164.741,164.653Z" transform="translate(-49.053 -163.193)" fill="#231815"/><path d="M170.485,167.019H170.1v-1.538c0-.419-.14-.792-.59-.792a.691.691,0,0,0-.652.746v1.6h-.388v-1.942c0-.264-.016-.466-.016-.668h.342l.031.419h.016a.906.906,0,0,1,.808-.482c.311,0,.839.2.839,1.087v1.569Z" transform="translate(-50.371 -163.198)" fill="#231815"/><path d="M174.769,166.387a3.961,3.961,0,0,0,.031.621h-.357l-.031-.342H174.4a.868.868,0,0,1-.746.388.7.7,0,0,1-.73-.746c0-.621.528-.963,1.46-.963,0-.217,0-.714-.575-.714a1.035,1.035,0,0,0-.606.186l-.093-.28a1.369,1.369,0,0,1,.761-.217c.715,0,.885.528.885,1.041v1.025Zm-.388-.73c-.466,0-1.072.078-1.072.621a.422.422,0,0,0,.435.482.624.624,0,0,0,.637-.606v-.5Z" transform="translate(-51.58 -163.187)" fill="#231815"/><path d="M177.78,166.588h-.388v-3.821h.388Z" transform="translate(-52.788 -162.767)" fill="#231815"/><path d="M183.886,166.387a3.959,3.959,0,0,0,.031.621h-.342l-.031-.342h-.016a.868.868,0,0,1-.746.388.7.7,0,0,1-.73-.746c0-.621.528-.963,1.46-.963,0-.217,0-.714-.575-.714a1.036,1.036,0,0,0-.606.186l-.093-.28a1.369,1.369,0,0,1,.761-.217c.714,0,.885.528.885,1.041v1.025Zm-.373-.73c-.466,0-1.072.078-1.072.621a.422.422,0,0,0,.435.482.624.624,0,0,0,.637-.606Z" transform="translate(-54.049 -163.187)" fill="#231815"/><path d="M188.516,167.019h-.388v-1.538c0-.419-.14-.792-.59-.792a.691.691,0,0,0-.652.746v1.6H186.5v-1.942c0-.264-.016-.466-.016-.668h.342l.031.419h.016a.906.906,0,0,1,.808-.482c.311,0,.839.2.839,1.087v1.569Z" transform="translate(-55.246 -163.198)" fill="#231815"/><path d="M193.2,165.951c0,.217.016.466.016.652h-.342l-.016-.45h-.016a.871.871,0,0,1-.823.5c-.575,0-1.025-.528-1.025-1.32,0-.885.5-1.4,1.087-1.4a.781.781,0,0,1,.73.4h.016v-1.569h.388v3.184Zm-.388-.932a.705.705,0,0,0-.683-.777c-.466,0-.761.466-.761,1.056,0,.544.249,1.025.746,1.025a.727.727,0,0,0,.683-.792v-.513Z" transform="translate(-56.466 -162.767)" fill="#231815"/><path d="M198.386,163.737l.373-.14v.606h.652v.311h-.652v1.507c0,.326.093.513.342.513a1.231,1.231,0,0,0,.264-.031l.016.311a1.084,1.084,0,0,1-.373.062c-.606,0-.621-.575-.621-.854v-1.491H198v-.311h.388Z" transform="translate(-58.359 -162.991)" fill="#231815"/><path d="M203.3,166.9a1.7,1.7,0,0,1-.792.155,1.172,1.172,0,0,1-1.165-1.32c0-.823.435-1.413,1.118-1.413.777,0,.963.73.963,1.2a.889.889,0,0,1-.016.217H201.7c0,.73.4.994.854.994a1.357,1.357,0,0,0,.652-.14Zm-.249-1.445c0-.357-.14-.808-.637-.808-.466,0-.668.45-.7.808Z" transform="translate(-59.263 -163.187)" fill="#231815"/><path d="M207.541,166.92a1.46,1.46,0,0,1-.683.155,1.2,1.2,0,0,1-1.2-1.336,1.287,1.287,0,0,1,1.289-1.4,1.431,1.431,0,0,1,.606.14l-.093.326a.965.965,0,0,0-.513-.14.927.927,0,0,0-.885,1.041c0,.637.357,1.025.87,1.025a1.4,1.4,0,0,0,.544-.124Z" transform="translate(-60.431 -163.193)" fill="#231815"/><path d="M211.917,166.588h-.388V165.05c0-.419-.14-.792-.575-.792a.7.7,0,0,0-.668.73v1.6H209.9v-3.821h.388v1.615h.016a.935.935,0,0,1,.777-.466c.311,0,.839.2.839,1.087Z" transform="translate(-61.576 -162.767)" fill="#231815"/><path d="M216.616,167.019h-.388v-1.538c0-.419-.14-.792-.59-.792a.691.691,0,0,0-.652.746v1.6H214.6v-1.942c0-.264-.016-.466-.016-.668h.342l.031.419h.016a.906.906,0,0,1,.808-.482c.311,0,.839.2.839,1.087v1.569Z" transform="translate(-62.842 -163.198)" fill="#231815"/><path d="M219.492,163.608a.263.263,0,0,1-.249-.28.249.249,0,1,1,.5,0A.238.238,0,0,1,219.492,163.608Zm.2,3.06h-.388v-2.609h.388Z" transform="translate(-64.103 -162.847)" fill="#231815"/><path d="M223.464,166.92a1.46,1.46,0,0,1-.683.155,1.2,1.2,0,0,1-1.2-1.336,1.287,1.287,0,0,1,1.289-1.4,1.43,1.43,0,0,1,.606.14l-.093.326a.965.965,0,0,0-.513-.14.927.927,0,0,0-.885,1.041c0,.637.357,1.025.87,1.025a1.4,1.4,0,0,0,.544-.124Z" transform="translate(-64.736 -163.193)" fill="#231815"/><path d="M227.393,166.387a3.961,3.961,0,0,0,.031.621h-.357l-.031-.342h-.016a.868.868,0,0,1-.746.388.7.7,0,0,1-.73-.746c0-.621.528-.963,1.46-.963,0-.217,0-.714-.575-.714a1.035,1.035,0,0,0-.606.186l-.093-.28a1.369,1.369,0,0,1,.761-.217c.715,0,.885.528.885,1.041v1.025Zm-.373-.73c-.466,0-1.072.078-1.072.621a.422.422,0,0,0,.435.482.624.624,0,0,0,.637-.606Z" transform="translate(-65.806 -163.187)" fill="#231815"/><path d="M230.425,166.588h-.388v-3.821h.388Z" transform="translate(-67.021 -162.767)" fill="#231815"/><path d="M234.959,163.737l.373-.14v.606h.652v.311h-.652v1.507c0,.326.093.513.342.513a1.231,1.231,0,0,0,.264-.031l.016.311a1.083,1.083,0,0,1-.373.062c-.606,0-.621-.575-.621-.854v-1.491h-.388v-.311h.388v-.482Z" transform="translate(-68.247 -162.991)" fill="#231815"/><path d="M239.269,164.746c-.047,0-.078-.016-.14-.016-.419,0-.621.419-.621.87v1.413h-.388v-1.833c0-.28,0-.528-.016-.777h.342l.016.5h.016a.754.754,0,0,1,.683-.559c.047,0,.078.016.109.016v.388Z" transform="translate(-69.202 -163.193)" fill="#231815"/><path d="M242.827,166.387a3.963,3.963,0,0,0,.031.621H242.5l-.031-.342h-.016a.868.868,0,0,1-.746.388.7.7,0,0,1-.73-.746c0-.621.528-.963,1.46-.963,0-.217,0-.714-.575-.714a1.035,1.035,0,0,0-.606.186l-.093-.28a1.369,1.369,0,0,1,.761-.217c.715,0,.885.528.885,1.041v1.025Zm-.373-.73c-.466,0-1.072.078-1.072.621a.422.422,0,0,0,.435.482.624.624,0,0,0,.637-.606Z" transform="translate(-69.979 -163.187)" fill="#231815"/><path d="M245.633,163.608a.263.263,0,0,1-.249-.28.249.249,0,1,1,.5,0A.246.246,0,0,1,245.633,163.608Zm.2,3.06h-.388v-2.609h.388Z" transform="translate(-71.17 -162.847)" fill="#231815"/><path d="M249.974,167.019h-.388v-1.538c0-.419-.14-.792-.59-.792a.691.691,0,0,0-.652.746v1.6h-.388v-1.942c0-.264-.016-.466-.016-.668h.342l.031.419h.016a.906.906,0,0,1,.808-.482c.311,0,.839.2.839,1.087v1.569Z" transform="translate(-71.861 -163.198)" fill="#231815"/><path d="M252.85,163.608a.263.263,0,0,1-.249-.28.249.249,0,1,1,.5,0A.246.246,0,0,1,252.85,163.608Zm.186,3.06h-.388v-2.609h.388Z" transform="translate(-73.121 -162.847)" fill="#231815"/><path d="M257.191,167.019H256.8v-1.538c0-.419-.14-.792-.59-.792a.691.691,0,0,0-.652.746v1.6h-.388v-1.942c0-.264-.016-.466-.016-.668h.342l.016.419h.016a.906.906,0,0,1,.808-.482c.311,0,.839.2.839,1.087v1.569Z" transform="translate(-73.812 -163.198)" fill="#231815"/><path d="M261.869,164.4c-.016.186-.016.4-.016.714v1.522c0,.45-.016,1.491-1.2,1.491a1.575,1.575,0,0,1-.792-.2l.109-.311a1.382,1.382,0,0,0,.7.2c.466,0,.792-.249.792-.947v-.311h-.016a.834.834,0,0,1-.777.45c-.606,0-1.025-.544-1.025-1.289,0-.9.544-1.382,1.087-1.382a.791.791,0,0,1,.761.45h.016l.016-.388Zm-.4,1.01a.694.694,0,0,0-.668-.746c-.435,0-.746.4-.746,1.041,0,.559.264.994.746.994a.7.7,0,0,0,.668-.761Z" transform="translate(-75.026 -163.193)" fill="#231815"/><path d="M264.5,167.548a.274.274,0,1,1,.544,0,.273.273,0,0,1-.28.3C264.594,167.858,264.5,167.719,264.5,167.548Z" transform="translate(-76.338 -163.975)" fill="#231815"/></g><g transform="translate(0.008 0)"><path d="M182.233,87.326,160.721,65.8a.932.932,0,0,0-1.476.031l-5.2,5.2a1.183,1.183,0,0,0,.047,1.274L170.8,89.019l.388.388-14.228,14.228a.707.707,0,0,0-.155.808c.124.342.528.4.777.4l10.485.062a2.539,2.539,0,0,0,1.46-.7l12.628-12.628C182.653,90.961,184.315,89.423,182.233,87.326Z" transform="translate(-46.439 -53.108)" fill="#040000"/><path d="M118.259,66.651l21.513,21.513a.932.932,0,0,0,1.476-.031l5.2-5.2a1.183,1.183,0,0,0-.047-1.274l-16.7-16.7-.388-.388,14.228-14.228a.707.707,0,0,0,.155-.808c-.124-.342-.528-.4-.777-.4l-10.485-.062a2.538,2.538,0,0,0-1.46.7L118.352,62.4C117.839,63,116.177,64.539,118.259,66.651Z" transform="translate(-36.533 -48.68)" fill="#040000"/><path d="M253.335,87.332,231.822,65.819a.932.932,0,0,0-1.476.031l-5.2,5.2a1.183,1.183,0,0,0,.047,1.274L241.9,89.041l.388.388-14.228,14.228a.707.707,0,0,0-.155.808c.124.342.528.4.777.4l10.485.062a2.538,2.538,0,0,0,1.46-.7L253.257,91.6C253.754,90.967,255.416,89.429,253.335,87.332Z" transform="translate(-65.661 -53.114)" fill="#040000"/><path d="M189.36,66.651l21.513,21.513a.932.932,0,0,0,1.476-.031l5.2-5.2a1.183,1.183,0,0,0-.047-1.274l-16.713-16.7-.388-.388,14.228-14.228a.707.707,0,0,0,.155-.808c-.124-.342-.528-.4-.777-.4l-10.485-.062a2.538,2.538,0,0,0-1.46.7L189.438,62.4C188.94,63,187.278,64.539,189.36,66.651Z" transform="translate(-55.755 -48.68)" fill="#040000"/><g transform="translate(27.664)"><path d="M55.348,72.876l5.126-11.09L54.6,49.08c-.109-.217-.4-.544-.652-.544H45.267c-.419.031-.559.14-.652.4a.886.886,0,0,0,.062.808Z" transform="translate(-44.544 -48.536)" fill="#535253"/><path d="M101.386,48.94c-.109-.264-.233-.373-.652-.4h-8.7c-.249,0-.544.326-.652.544L75.944,82.506,71.5,72.876l-5.126,11.09,7.192,15.579a1.28,1.28,0,0,0,1.18.761H77.14a1.28,1.28,0,0,0,1.18-.761l23-49.813A.852.852,0,0,0,101.386,48.94Z" transform="translate(-50.446 -48.536)" fill="#535253"/></g><path d="M57.571,48.94c-.109-.264-.233-.373-.652-.4H48.235c-.249,0-.544.326-.652.544L32.144,82.506,16.7,49.08c-.109-.217-.4-.544-.652-.544h-8.7c-.419.031-.559.14-.652.4a.886.886,0,0,0,.062.808l23,49.813a1.28,1.28,0,0,0,1.18.761H33.34a1.28,1.28,0,0,0,1.18-.761l23-49.813A.931.931,0,0,0,57.571,48.94Z" transform="translate(-6.631 -48.536)" fill="#040000"/></g></g></g></svg>