<svg xmlns="http://www.w3.org/2000/svg" width="857.73" height="102" viewBox="0 0 857.73 102"><path d="M254.286,124.562h-8.8v13.672H242.4V124.562h-8.8V122.2h20.686v2.362Z" transform="translate(-68.754 -36.806)" fill="#fff"/><path d="M287.193,130.018a7.29,7.29,0,0,1-3.722,6.371,14.333,14.333,0,0,1-8.088,2.147,14.743,14.743,0,0,1-8.16-2.147,7.29,7.29,0,0,1-3.722-6.371c0-2.577,1.288-4.653,3.794-6.371a16.307,16.307,0,0,1,16.177,0A7.529,7.529,0,0,1,287.193,130.018Zm-3.221,0a5.405,5.405,0,0,0-2.72-4.581,10.671,10.671,0,0,0-5.869-1.5,10.35,10.35,0,0,0-6.227,1.718,5.175,5.175,0,0,0-.072,8.733,10.428,10.428,0,0,0,6.3,1.646,10.581,10.581,0,0,0,6.3-1.718A5.06,5.06,0,0,0,283.972,130.018Z" transform="translate(-77.252 -36.607)" fill="#fff"/><path d="M350.439,138.234h-3.078v-13.1h-.072L337.7,135.585l-9.448-10.451h-.072v13.1H325.1V122.2h3.794l8.8,9.663,8.876-9.663h3.794v16.034Z" transform="translate(-94.759 -36.806)" fill="#fff"/><path d="M388.306,138.234h-3.364l-2.147-3.579H370.412l-2.147,3.579H364.9l9.735-16.034H378.5Zm-6.943-5.941-4.724-7.8-4.724,7.8Z" transform="translate(-106.071 -36.806)" fill="#fff"/><path d="M423.5,138.234h-3.937l-8.8-8.446-5.583,3.579v4.867H402.1V122.2h3.078v8.3l12.884-8.3H422.5l-9.448,6.084Z" transform="translate(-116.643 -36.806)" fill="#fff"/><path d="M455.626,138.234H436.3V122.2h18.611v2.362H439.378v4.152h10.808v2.362H439.378V135.8h16.248Z" transform="translate(-126.363 -36.806)" fill="#fff"/><path d="M510.563,138.234H507.2l-2.147-3.579H492.668l-2.147,3.579H487.3l9.735-16.034H500.9Zm-6.943-5.941-4.724-7.8-4.724,7.8Z" transform="translate(-140.858 -36.806)" fill="#fff"/><path d="M560.6,122.2a6.915,6.915,0,0,1,4.509,1.36,4.418,4.418,0,0,1,1.646,3.651,4.294,4.294,0,0,1-1.718,3.651,8.212,8.212,0,0,1-5.01,1.288H549.078v6.084H546V122.2Zm-.573,7.516c2.362,0,3.507-.859,3.507-2.505,0-1.789-1.217-2.648-3.722-2.648H549.078v5.154Z" transform="translate(-157.541 -36.806)" fill="#fff"/><path d="M599.155,138.234H579.9V122.2h18.539v2.362H582.906v4.152h10.808v2.362H582.906V135.8h16.248Z" transform="translate(-167.176 -36.806)" fill="#fff"/><path d="M634.073,138.234h-3.579l-5.011-6.084h-9.305v6.084H613.1V122.2h14.531a6.991,6.991,0,0,1,4.581,1.36,4.465,4.465,0,0,1,1.646,3.722,4.219,4.219,0,0,1-1.36,3.293,5.8,5.8,0,0,1-3.436,1.432Zm-6.8-8.518c2.362,0,3.507-.859,3.507-2.505,0-1.789-1.288-2.648-3.794-2.648H616.25v5.154Z" transform="translate(-176.612 -36.806)" fill="#fff"/><path d="M664.01,125.823a20.267,20.267,0,0,0-8.375-1.789,13.2,13.2,0,0,0-4.295.573c-1,.358-1.5.931-1.5,1.575,0,.716.5,1.217,1.575,1.575a17.152,17.152,0,0,0,3.722.5c2.577.143,4.223.286,5.011.358a12.246,12.246,0,0,1,5.082,1.5,3.481,3.481,0,0,1,1.646,3.078,4.293,4.293,0,0,1-2.577,3.937c-1.718.931-4.223,1.36-7.444,1.36-4.724,0-8.375-.931-10.952-2.72l1.646-1.933a19.887,19.887,0,0,0,9.305,2.291,13.326,13.326,0,0,0,5.01-.787c1.145-.5,1.718-1.217,1.718-2.076,0-1-.716-1.718-2.219-2-.787-.143-2.863-.358-6.3-.573a18.7,18.7,0,0,1-6.371-1.074,3.218,3.218,0,0,1-2.147-3.149,3.932,3.932,0,0,1,2.434-3.579,15.058,15.058,0,0,1,6.872-1.288,19.315,19.315,0,0,1,9.949,2.362Z" transform="translate(-185.934 -36.636)" fill="#fff"/><path d="M703.593,130.018a7.29,7.29,0,0,1-3.722,6.371,14.333,14.333,0,0,1-8.088,2.147,14.743,14.743,0,0,1-8.16-2.147,7.29,7.29,0,0,1-3.722-6.371c0-2.577,1.288-4.653,3.794-6.371a16.307,16.307,0,0,1,16.177,0A7.373,7.373,0,0,1,703.593,130.018Zm-3.149,0a5.405,5.405,0,0,0-2.72-4.581,10.671,10.671,0,0,0-5.869-1.5,10.35,10.35,0,0,0-6.227,1.718,5.175,5.175,0,0,0-.072,8.733,10.428,10.428,0,0,0,6.3,1.646,10.582,10.582,0,0,0,6.3-1.718A5.059,5.059,0,0,0,700.443,130.018Z" transform="translate(-195.597 -36.607)" fill="#fff"/><path d="M741.2,138.234h-3.794l-14.029-13.171v13.171H720.3V122.2h3.794l14.029,13.171V122.2H741.2v16.034Z" transform="translate(-207.079 -36.806)" fill="#fff"/><path d="M808.611,124.562H793.078v4.152h10.808v2.362H793.078v7.158H790V122.2h18.539l.072,2.362Z" transform="translate(-226.888 -36.806)" fill="#fff"/><path d="M840.893,130.018a7.29,7.29,0,0,1-3.722,6.371,14.333,14.333,0,0,1-8.088,2.147,14.743,14.743,0,0,1-8.16-2.147,7.29,7.29,0,0,1-3.722-6.371c0-2.577,1.288-4.653,3.794-6.371a16.307,16.307,0,0,1,16.177,0A7.373,7.373,0,0,1,840.893,130.018Zm-3.149,0a5.4,5.4,0,0,0-2.72-4.581,10.672,10.672,0,0,0-5.87-1.5,10.35,10.35,0,0,0-6.227,1.718,5.175,5.175,0,0,0-.072,8.733,10.428,10.428,0,0,0,6.3,1.646,10.582,10.582,0,0,0,6.3-1.718A5.06,5.06,0,0,0,837.743,130.018Z" transform="translate(-234.619 -36.607)" fill="#fff"/><path d="M872.409,125.823a20.266,20.266,0,0,0-8.375-1.789,13.2,13.2,0,0,0-4.295.573c-1,.358-1.5.931-1.5,1.575,0,.716.5,1.217,1.575,1.575a17.151,17.151,0,0,0,3.722.5c2.577.143,4.223.286,5.01.358a12.246,12.246,0,0,1,5.082,1.5,3.481,3.481,0,0,1,1.646,3.078,4.293,4.293,0,0,1-2.577,3.937c-1.718.931-4.223,1.36-7.444,1.36-4.724,0-8.375-.931-10.952-2.72l1.646-1.933a19.887,19.887,0,0,0,9.305,2.291,13.326,13.326,0,0,0,5.01-.787c1.145-.5,1.718-1.217,1.718-2.076,0-1-.716-1.718-2.219-2-.787-.143-2.863-.358-6.3-.573a18.7,18.7,0,0,1-6.371-1.074,3.218,3.218,0,0,1-2.147-3.149,3.932,3.932,0,0,1,2.434-3.579,15.059,15.059,0,0,1,6.872-1.288,19.315,19.315,0,0,1,9.949,2.362Z" transform="translate(-245.163 -36.636)" fill="#fff"/><path d="M905.186,124.562h-8.8v13.672H893.3V124.562h-8.8V122.2h20.686v2.362Z" transform="translate(-253.746 -36.806)" fill="#fff"/><path d="M937.255,138.234H918V122.2h18.539v2.362H921.006v4.152h10.808v2.362H921.006V135.8h16.248v2.434Z" transform="translate(-263.267 -36.806)" fill="#fff"/><path d="M972.2,138.234h-3.579l-5.01-6.084h-9.305v6.084H951.3V122.2h14.531a6.991,6.991,0,0,1,4.581,1.36,4.674,4.674,0,0,1,1.646,3.722,4.219,4.219,0,0,1-1.36,3.293,5.8,5.8,0,0,1-3.436,1.432Zm-6.872-8.518c2.362,0,3.507-.859,3.507-2.505,0-1.789-1.288-2.648-3.794-2.648H954.306v5.154Z" transform="translate(-272.732 -36.806)" fill="#fff"/><path d="M1029.3,138.234h-3.078v-7.158h-14.745v7.158H1008.4V122.2h3.078v6.514h14.745V122.2h3.078Z" transform="translate(-288.96 -36.806)" fill="#fff"/><path d="M1066.829,133.08q0,2.469-2.792,4.08a15.486,15.486,0,0,1-7.587,1.646,15.786,15.786,0,0,1-7.659-1.646q-2.792-1.611-2.792-4.08V122.2h3.078v10.236a3.09,3.09,0,0,0,1.861,2.863,15.658,15.658,0,0,0,11.023,0,3.163,3.163,0,0,0,1.861-2.863V122.2h3.078l-.072,10.88Z" transform="translate(-299.646 -36.806)" fill="#fff"/><path d="M1108.811,138.234h-3.078v-13.1h-.072l-9.592,10.451-9.52-10.451h-.072v13.1H1083.4V122.2h3.794l8.8,9.663,8.876-9.663h3.794v16.034Z" transform="translate(-310.276 -36.806)" fill="#fff"/><path d="M1146.706,138.234h-3.364l-2.147-3.579h-12.383l-2.147,3.579H1123.3l9.735-16.034h3.865Zm-6.943-5.941-4.724-7.8-4.724,7.8Z" transform="translate(-321.616 -36.806)" fill="#fff"/><path d="M1181.5,138.234h-3.794l-14.029-13.171v13.171H1160.6V122.2h3.794l14.029,13.171V122.2h3.078Z" transform="translate(-332.217 -36.806)" fill="#fff"/><path d="M311.968,71.243a8.3,8.3,0,0,1-4.653-1.432L245.257,24.86V63.942c0,4.008-2.648,7.3-6.728,7.3s-6.728-3.293-6.728-7.3V10.4a6.97,6.97,0,0,1,3.722-6.514,7.27,7.27,0,0,1,7.587.644l61.629,44.952V10.4a7.446,7.446,0,0,1,14.888,0V63.942a7.357,7.357,0,0,1-4.152,6.514A7.809,7.809,0,0,1,311.968,71.243Z" transform="translate(-68.242 -2.957)" fill="#fff"/><path d="M581.547,71.264a8.069,8.069,0,0,1-4.867-1.575L504.528,16.149a7,7,0,0,1-1.288-10.236,8.253,8.253,0,0,1,11.023-1.145l72.152,53.541A7,7,0,0,1,587.7,68.544,8.2,8.2,0,0,1,581.547,71.264Z" transform="translate(-144.915 -2.978)" fill="#fff"/><path d="M509.374,71.236a8.023,8.023,0,0,1-6.156-2.792,6.893,6.893,0,0,1,1.288-10.236L576.658,4.668a8.261,8.261,0,0,1,11.023,1.145,6.893,6.893,0,0,1-1.288,10.236L514.242,69.661A8.069,8.069,0,0,1,509.374,71.236Z" transform="translate(-144.894 -2.95)" fill="#fff"/><path d="M718.084,17.945H644.072a7.131,7.131,0,0,1-6.872-7.373A7.177,7.177,0,0,1,644.072,3.2h74.013a7.131,7.131,0,0,1,6.872,7.373A7.177,7.177,0,0,1,718.084,17.945Z" transform="translate(-183.461 -2.985)" fill="#fff"/><path d="M695.573,71.343a7.127,7.127,0,0,1-7.373-7.3V10.5a7.373,7.373,0,0,1,14.745,0V64.042A7.087,7.087,0,0,1,695.573,71.343Z" transform="translate(-197.956 -2.985)" fill="#fff"/><path d="M1024.112,71.443a8.241,8.241,0,0,1-4.581-1.432L958.4,25.06V64.142a7.3,7.3,0,0,1-14.6,0V10.6a7.663,7.663,0,0,1,12.1-5.869l61.057,44.952V10.6a7.3,7.3,0,1,1,14.6,0V64.142a7.42,7.42,0,0,1-4.08,6.514A6.852,6.852,0,0,1,1024.112,71.443Z" transform="translate(-270.6 -3.014)" fill="#fff"/><path d="M1159.641,18.345h-73.726a7.2,7.2,0,0,1-7.015-7.373,7.2,7.2,0,0,1,7.015-7.373h73.726a7.2,7.2,0,0,1,7.015,7.373A7.2,7.2,0,0,1,1159.641,18.345Z" transform="translate(-308.997 -3.099)" fill="#fff"/><path d="M1159.6,81.643H1086.73c-3.937,0-7.731-3.221-7.731-7.158V48c0-4.008,3.794-7.3,7.731-7.3h65.709a7.3,7.3,0,0,1,0,14.6h-59.124V67.184H1159.6a7.256,7.256,0,0,1,7.158,7.3A7.179,7.179,0,0,1,1159.6,81.643Z" transform="translate(-309.025 -13.643)" fill="#fff"/><path d="M876.257,71.472H828.943c-11.095,0-20.543-8.8-20.543-19.183V22.655c0-10.379,9.448-19.255,20.543-19.255h47.314c11.095,0,19.9,8.876,19.9,19.255V52.288C896.156,62.667,887.423,71.472,876.257,71.472ZM828.943,16.928c-4.152,0-7.086,2.291-7.086,5.655V52.217c0,3.364,2.863,5.583,7.086,5.583h47.314c4.152,0,7.731-2.219,7.731-5.583V22.583c0-3.364-3.507-5.655-7.731-5.655H828.943Z" transform="translate(-232.118 -3.042)" fill="#fff"/><path d="M447.513,17.574l-73.8.358a7.183,7.183,0,0,1-7.015-7.3,7.188,7.188,0,0,1,6.943-7.373l73.8-.358a7.183,7.183,0,0,1,7.015,7.3A7.186,7.186,0,0,1,447.513,17.574Z" transform="translate(-106.582 -2.9)" fill="#fff"/><path d="M447.669,81.544l-72.8.286c-3.937,0-7.8-3.221-7.8-7.229L367,47.831c0-4.008,3.794-7.444,7.731-7.444l65.638-.286a7.34,7.34,0,0,1,.072,14.674l-59.124.286.072,12.025L447.6,66.8a7.377,7.377,0,0,1,.072,14.745Z" transform="translate(-106.667 -13.473)" fill="#fff"/><path d="M105.794,97.849H0V25.911H34.429V0H140.295V71.937h-34.5V97.848ZM7.372,33.213V90.476H98.421V33.213H7.372ZM41.8,7.372V25.911h63.991V64.564h27.128V7.372Z" transform="translate(0 1.646)" fill="#fff"/></svg>